<svg width="86" height="15" viewBox="0 0 86 15" fill="none" xmlns="http://www.w3.org/2000/svg">
<path d="M34.5 7.5C34.5 5.51088 35.2902 3.60322 36.6967 2.1967C38.1032 0.790176 40.0109 0 42 0C43.9891 0 45.8968 0.790176 47.3033 2.1967C48.7098 3.60322 49.5 5.51088 49.5 7.5C49.5 9.48912 48.7098 11.3968 47.3033 12.8033C45.8968 14.2098 43.9891 15 42 15C40.0109 15 38.1032 14.2098 36.6967 12.8033C35.2902 11.3968 34.5 9.48912 34.5 7.5ZM42 2.8125C40.7568 2.8125 39.5645 3.30636 38.6854 4.18544C37.8064 5.06451 37.3125 6.2568 37.3125 7.5C37.3125 8.7432 37.8064 9.93549 38.6854 10.8146C39.5645 11.6936 40.7568 12.1875 42 12.1875C43.2432 12.1875 44.4355 11.6936 45.3146 10.8146C46.1936 9.93549 46.6875 8.7432 46.6875 7.5C46.6875 6.2568 46.1936 5.06451 45.3146 4.18544C44.4355 3.30636 43.2432 2.8125 42 2.8125Z" fill="white"/>
<path d="M27.5 8C27.5 9.32608 26.9205 10.5979 25.8891 11.5355C24.8576 12.4732 23.4587 13 22 13C20.5413 13 19.1424 12.4732 18.1109 11.5355C17.0795 10.5979 16.5 9.32608 16.5 8C16.5 6.67392 17.0795 5.40215 18.1109 4.46447C19.1424 3.52678 20.5413 3 22 3C23.4587 3 24.8576 3.52678 25.8891 4.46447C26.9205 5.40215 27.5 6.67392 27.5 8Z" fill="white"/>
<path d="M68.5 8C68.5 9.5913 67.8679 11.1174 66.7426 12.2426C65.6174 13.3679 64.0913 14 62.5 14C60.9087 14 59.3826 13.3679 58.2574 12.2426C57.1321 11.1174 56.5 9.5913 56.5 8C56.5 6.4087 57.1321 4.88258 58.2574 3.75736C59.3826 2.63214 60.9087 2 62.5 2C64.0913 2 65.6174 2.63214 66.7426 3.75736C67.8679 4.88258 68.5 6.4087 68.5 8Z" fill="white"/>
<path d="M85.5 7.5C85.5 8.69347 85.0259 9.83807 84.182 10.682C83.3381 11.5259 82.1935 12 81 12C79.8065 12 78.6619 11.5259 77.818 10.682C76.9741 9.83807 76.5 8.69347 76.5 7.5C76.5 6.30653 76.9741 5.16193 77.818 4.31802C78.6619 3.47411 79.8065 3 81 3C82.1935 3 83.3381 3.47411 84.182 4.31802C85.0259 5.16193 85.5 6.30653 85.5 7.5Z" fill="white"/>
<path d="M44.5 7.5C44.5 8.16304 44.2366 8.79893 43.7678 9.26777C43.2989 9.73661 42.663 10 42 10C41.337 10 40.7011 9.73661 40.2322 9.26777C39.7634 8.79893 39.5 8.16304 39.5 7.5C39.5 6.83696 39.7634 6.20107 40.2322 5.73223C40.7011 5.26339 41.337 5 42 5C42.663 5 43.2989 5.26339 43.7678 5.73223C44.2366 6.20107 44.5 6.83696 44.5 7.5Z" fill="white"/>
<path d="M7.5 7.5C7.5 8.42826 7.13125 9.3185 6.47487 9.97487C5.8185 10.6313 4.92826 11 4 11C3.07174 11 2.1815 10.6313 1.52513 9.97487C0.868749 9.3185 0.5 8.42826 0.5 7.5C0.5 6.57174 0.868749 5.6815 1.52513 5.02513C2.1815 4.36875 3.07174 4 4 4C4.92826 4 5.8185 4.36875 6.47487 5.02513C7.13125 5.6815 7.5 6.57174 7.5 7.5Z" fill="white"/>
</svg>
